# xmcd
#
# Track frame offsets:
#   150
#   26596
#   53003
#   75157
#
# Disc length: 1399 seconds
#
# Revision: 0
# Processed by: cddbd v1.5PL3 Copyright (c) Steve Scherf et al.
# Submitted via: uFREEDB ActiveX Control 1.5
#
DISCID=1e057504
DTITLE=xvcxv - vxvxv
DYEAR=1900
DGENRE=Books and Spoken
TTITLE0=vcv
TTITLE1=vcv
TTITLE2=vcvvcv
TTITLE3=cvcv
EXTD=
EXTT0=
EXTT1=
EXTT2=
EXTT3=
PLAYORDER=
